<svg id="visual" viewBox="0 0 900 600" width="900" height="600" xmlns="http://www.w3.org/2000/svg" xmlns:xlink="http://www.w3.org/1999/xlink" version="1.1"><path d="M0 513L25 466.2C50 419.3 100 325.7 150 319.5C200 313.3 250 394.7 300 372.3C350 350 400 224 450 160.7C500 97.3 550 96.7 600 171.5C650 246.3 700 396.7 750 441.7C800 486.7 850 426.3 875 396.2L900 366L900 0L875 0C850 0 800 0 750 0C700 0 650 0 600 0C550 0 500 0 450 0C400 0 350 0 300 0C250 0 200 0 150 0C100 0 50 0 25 0L0 0Z" fill="#006B66" stroke-linecap="round" stroke-linejoin="miter"></path></svg>